<svg width="22" height="21" viewBox="0 0 22 21" fill="none" xmlns="http://www.w3.org/2000/svg">
<path fill-rule="evenodd" clip-rule="evenodd" d="M2.66665 14.2352L6.83331 10.0685L10.4791 13.7144L17.25 6.94352L19.3333 9.02686V2.16666H2.66665V14.2352ZM2.66665 17.1815V18.8333H12.6518L6.83331 13.0148L2.66665 17.1815ZM15.5981 18.8333H19.3333V11.9731L17.25 9.8898L11.9523 15.1875L15.5981 18.8333ZM2.66665 0.0833282H19.3333C20.4839 0.0833282 21.4166 1.01607 21.4166 2.16666V18.8333C21.4166 19.9839 20.4839 20.9167 19.3333 20.9167H2.66665C1.51605 20.9167 0.583313 19.9839 0.583313 18.8333V2.16666C0.583313 1.01607 1.51605 0.0833282 2.66665 0.0833282ZM9.95831 3.20833C11.6842 3.20833 13.0833 4.60744 13.0833 6.33333C13.0833 8.05922 11.6842 9.45833 9.95831 9.45833C8.23242 9.45833 6.83331 8.05922 6.83331 6.33333C6.83331 4.60744 8.23242 3.20833 9.95831 3.20833ZM9.95831 5.29166C9.38302 5.29166 8.91665 5.75803 8.91665 6.33333C8.91665 6.90863 9.38302 7.375 9.95831 7.375C10.5336 7.375 11 6.90863 11 6.33333C11 5.75803 10.5336 5.29166 9.95831 5.29166Z" fill="#97AACD"/>
</svg>
